# xmcd CD database file
#
# Track frame offsets:
#	150
#	32599
#	57378
#	88779
#	112091
#	139623
#	173800
#	201968
#	224691
#	251793
#	271407
#	299864
#	342782
#
# Disc length: 4737 seconds
#
# Revision: 1
# Processed by: cddbd v1.5.1PL0 Copyright (c) Steve Scherf et al.
# Submitted via: CDex 1.51
#
DISCID=d8127f0d
DTITLE=Jazz Improv - Vol. 5 Number 1
DYEAR=1900
DGENRE=Jazz
TTITLE0=Continuum - Lady Bird
TTITLE1=Corey Christiansen - Little Hand Big Dream
TTITLE2=Jeff Marx - Treading Air
TTITLE3=Dan Jacobs - Blue
TTITLE4=Dr. Michael White - Dancing in the Sky
TTITLE5=Jon Faddis - Riverside Park
TTITLE6=Eric Nemeyer - The Real World
TTITLE7=Jeff Coffin - Walking on Thin Water
TTITLE8=Marvin Stamm- Three and One
TTITLE9=Streetdancer- Valkata
TTITLE10=Bob Acri-Wake Robin
TTITLE11=Jim McFalls - Big Bad Drummin Dude
TTITLE12=Dizzy Gillespie - Two Bass Hit
EXTD=
EXTT0=
EXTT1=
EXTT2=
EXTT3=
EXTT4=
EXTT5=
EXTT6=
EXTT7=
EXTT8=
EXTT9=
EXTT10=
EXTT11=
EXTT12=
PLAYORDER=
